<?xml version="1.0" encoding="utf-8"?>
<!-- Generator: Adobe Illustrator 25.0.0, SVG Export Plug-In . SVG Version: 6.00 Build 0)  -->
<svg version="1.1" id="Layer_1" xmlns="http://www.w3.org/2000/svg" xmlns:xlink="http://www.w3.org/1999/xlink" x="0px" y="0px"
	 viewBox="0 0 82 82" style="enable-background:new 0 0 82 82;" xml:space="preserve">
<style type="text/css">
	.st0{fill:#009933;}
</style>
<g transform="translate(0.000000,260.000000) scale(0.100000,-0.100000)">
	<g>
		<path class="st0" d="M113.1,2469.8c-8.1-6.3-8.7-19.5-0.9-25.5c6.3-5.1,18.3-5.4,179.4-5.4c94.9,0.3,174,0,175.8-0.9
			c2.4-0.6,3.6-28.5,3.6-99.2c0-93.4,0.3-98.3,5.7-102.8c5.1-3.9,21.3-4.5,128.6-4.5h122.6l21.3-27l21.3-27.3v-71.8v-72.1l-31.8-0.3
			l-32.2-0.6l-3.6,12.3c-19.2,64.3-102.8,86.2-154.1,40.9c-12.6-11.1-29.1-38.5-29.1-48.7c0-3.3-14.4-4.2-84.1-4.2l-83.8-0.3
			l-3.6,11.1c-15.9,50.5-69.7,77.8-122,61.6c-23.1-7.2-50.8-34.3-59.2-57.7l-5.4-15.9l-24.6,0.6c-33.1,0.9-44.2-6-37.6-23.7
			c3.6-9.3,12.6-12,37.9-11.1c12,0.3,22.8-0.3,24-1.2c1.5-0.9,4.5-7.8,6.9-15c5.4-17.1,27-40.6,46.3-50.8
			c13.2-6.9,18.9-8.1,42.4-8.1c22.2,0,29.4,1.5,41.5,7.2c22.5,11.1,50.2,44.2,50.2,60.4c0,3.3,0.9,6.3,2.4,6.3
			c1.2,0.3,39.1,0.6,84.4,0.9c70.6,0.3,82.3-0.3,83.5-4.2c4.8-15,18.3-37.6,28.2-46.3c18-16.5,34.6-23.7,58.3-25.2
			c43-2.7,79.3,19.8,95.8,59.8c2.4,6,3.6,11.7,2.7,12.9c-2.4,2.4-1.2,2.4,41.2,3c37.9,0.6,50.5,4.8,56.8,18.9
			c2.1,4.5,3.3,37,3.3,90.7v83.2l-25.8,33.1c-17.4,22.2-30.6,43.3-41.5,65.8c-9,18.3-23.1,47.8-31.8,66.1
			c-18.3,37.9-31.8,53.5-58.6,66.1c-18,8.7-18,8.7-80.2,8.7l-62.5,0.3l0.3,10.5c0.6,18.3-0.3,23.4-5.1,28.2
			c-4.2,4.2-25.8,4.8-193.2,4.8C160.6,2473.4,117,2472.5,113.1,2469.8z M635.9,2388.3c5.4-2.7,13.2-9,17.4-13.5
			c6.9-7.2,28.5-48.7,48.4-92.8l7.2-15.9H607.4H505.5v64.9v64.6l60.4-0.9C616.7,2394.1,627.8,2392.9,635.9,2388.3z M283.5,2068.6
			c13.5-6.6,19.8-12.9,26.7-26.4c9.3-18.3,8.4-40-2.7-57.7c-31.5-50.8-109.1-29.7-110,29.7C196.6,2059,243.8,2088.8,283.5,2068.6z
			 M637.4,2069.5c44.2-21,46-82.9,2.7-106.7c-35.8-19.8-80.8,2.7-87.1,43.9C545.8,2053.6,594.4,2090,637.4,2069.5z"/>
		<path class="st0" d="M71.9,2362.2c-7.5-7.5-7.5-16.5,0-24c5.4-5.4,10.5-5.7,109.7-5.7s104.3,0.3,109.7,5.7c7.5,7.5,7.5,16.5,0,24
			c-5.7,5.7-9.9,6-109.7,6S77.6,2367.9,71.9,2362.2z"/>
		<path class="st0" d="M30.5,2261.2c-9-6-8.7-20.4,0-26.4c5.7-4.2,21.3-4.8,109.1-4.8c56.2,0,103.7,1.2,105.5,2.4
			c3.6,2.4,10.2,13.8,10.2,17.7c0,1.5-2.7,5.7-6,9c-5.7,6.3-8.1,6.3-109.1,6.6C52.1,2266.1,36.2,2265.2,30.5,2261.2z"/>
		<path class="st0" d="M71.9,2157.9c-7.8-7.8-7.5-16.5,0.3-24.3c6-6,8.7-6,60.4-5.1c49.3,0.9,54.4,1.5,58.3,6.6
			c5.7,8.1,5.4,15.6-1.8,22.8c-5.4,5.4-9.9,6-58.6,6S77.3,2163.3,71.9,2157.9z"/>
	</g>
</g>
</svg>
