<?xml version="1.0" encoding="utf-8"?>
<!-- Generator: Adobe Illustrator 25.0.0, SVG Export Plug-In . SVG Version: 6.00 Build 0)  -->
<svg version="1.1" id="Layer_1" xmlns="http://www.w3.org/2000/svg" xmlns:xlink="http://www.w3.org/1999/xlink" x="0px" y="0px"
	 viewBox="0 0 500 100" style="enable-background:new 0 0 500 100;" xml:space="preserve">
<style type="text/css">
	.st0{fill-rule:evenodd;clip-rule:evenodd;fill:#FFFFFF;}
	.st1{fill-rule:evenodd;clip-rule:evenodd;fill:#FFFFFF;filter:url(#Adobe_OpacityMaskFilter);}
	.st2{mask:url(#mask0_2_);}
</style>
<path class="st0" d="M55.3,9L37.4,61L19.6,9H7.3l23,63.9h14.1L67.4,9H55.3z"/>
<path class="st0" d="M82.3,64.1c3.3,0,5.9-1.1,7.8-3.3c1.8-2.2,3-4.9,3.5-8.1h-9.9c-3.1,0-5.3,0.6-6.6,1.7c-1.3,1.1-2,2.5-2,4.1
	c0,1.8,0.7,3.1,2,4.1C78.3,63.6,80.1,64.1,82.3,64.1z M79.6,73.1c-3.9,0-7.1-0.6-9.5-1.9c-2.5-1.2-4.3-2.9-5.5-4.9
	c-1.2-2.1-1.8-4.3-1.8-6.8c0-4.2,1.6-7.5,4.9-10.1c3.3-2.6,8.2-3.9,14.7-3.9h11.4v-1.1c0-3.1-0.9-5.3-2.6-6.8
	c-1.8-1.4-3.9-2.2-6.5-2.2c-2.4,0-4.4,0.6-6.2,1.7c-1.8,1.1-2.8,2.8-3.3,4.9H63.8c0.3-3.3,1.4-6.1,3.3-8.5c1.9-2.4,4.4-4.3,7.4-5.6
	c3-1.3,6.4-1.9,10.2-1.9c6.4,0,11.5,1.6,15.2,4.8c3.7,3.2,5.5,7.7,5.5,13.6V72h-9.9l-1.1-7.2c-1.3,2.4-3.2,4.4-5.6,6
	C86.5,72.3,83.4,73.1,79.6,73.1z"/>
<path class="st0" d="M111.1,72V27.1h10.3l0.9,7.6c1.4-2.7,3.4-4.8,6-6.3c2.6-1.6,5.7-2.4,9.3-2.4c5.6,0,9.9,1.8,13,5.3
	c3.1,3.5,4.6,8.6,4.6,15.4V72h-11.6V47.8c0-3.9-0.8-6.8-2.4-8.9c-1.6-2.1-4-3.1-7.4-3.1c-3.3,0-5.9,1.1-8,3.4
	c-2.1,2.3-3.1,5.5-3.1,9.6V72H111.1z"/>
<path class="st0" d="M177.3,72V8.6h11.6V63H217V72H177.3z"/>
<path class="st0" d="M241.5,35.4c-2.8,0-5.4,0.8-7.5,2.4c-2.2,1.6-3.6,4-4.2,7.3h22.4c-0.2-3-1.3-5.3-3.3-7.1
	C247,36.3,244.5,35.4,241.5,35.4z M241.5,73.1c-4.5,0-8.6-1-12.1-2.9c-3.5-1.9-6.3-4.6-8.3-8.2c-2-3.5-3-7.5-3-12.1
	c0-4.7,1-8.8,3-12.4c2-3.6,4.7-6.4,8.2-8.5c3.5-2,7.6-3,12.3-3c4.4,0,8.3,1,11.7,2.9c3.4,1.9,6,4.6,8,7.9c1.9,3.4,2.9,7.1,2.9,11.2
	c0,0.7,0,1.4,0,2.1c0,0.7-0.1,1.5-0.1,2.3h-34.2c0.2,3.5,1.5,6.3,3.7,8.2c2.2,2,4.9,3,8,3c2.4,0,4.3-0.5,5.9-1.6
	c1.6-1.1,2.8-2.4,3.6-4.1h11.8c-0.8,2.8-2.3,5.4-4.2,7.7c-2,2.3-4.4,4.2-7.3,5.5C248.3,72.5,245.1,73.1,241.5,73.1z"/>
<path class="st0" d="M286.6,64.1c3.3,0,5.9-1.1,7.8-3.3c1.8-2.2,3-4.9,3.5-8.1H288c-3.1,0-5.3,0.6-6.6,1.7c-1.3,1.1-2,2.5-2,4.1
	c0,1.8,0.7,3.1,2,4.1C282.7,63.6,284.4,64.1,286.6,64.1z M284,73.1c-3.9,0-7.1-0.6-9.5-1.9c-2.5-1.2-4.3-2.9-5.5-4.9
	c-1.2-2.1-1.8-4.3-1.8-6.8c0-4.2,1.6-7.5,4.9-10.1c3.3-2.6,8.2-3.9,14.7-3.9h11.4v-1.1c0-3.1-0.9-5.3-2.6-6.8
	c-1.8-1.4-3.9-2.2-6.5-2.2c-2.4,0-4.4,0.6-6.2,1.7c-1.8,1.1-2.8,2.8-3.3,4.9h-11.4c0.3-3.3,1.4-6.1,3.3-8.5c1.9-2.4,4.4-4.3,7.4-5.6
	c3-1.3,6.4-1.9,10.2-1.9c6.4,0,11.5,1.6,15.2,4.8c3.7,3.2,5.5,7.7,5.5,13.6V72h-9.9l-1.1-7.2c-1.3,2.4-3.2,4.4-5.6,6
	C290.8,72.3,287.7,73.1,284,73.1z"/>
<path class="st0" d="M334,73.1c-4,0-7.5-0.6-10.5-1.9c-3-1.3-5.4-3.1-7.3-5.4c-1.8-2.3-2.9-4.9-3.3-8h11.7c0.4,1.8,1.3,3.2,3,4.5
	c1.6,1.2,3.7,1.9,6.2,1.9c2.5,0,4.4-0.5,5.6-1.5c1.2-1,1.8-2.2,1.8-3.5c0-1.9-0.9-3.2-2.5-3.9c-1.7-0.7-4.1-1.4-7.1-2
	c-1.9-0.4-3.9-0.9-5.9-1.5c-2-0.6-3.8-1.4-5.5-2.3c-1.7-0.9-3-2.1-4-3.6c-1-1.5-1.5-3.3-1.5-5.5c0-4,1.6-7.3,4.8-10.1
	c3.2-2.7,7.6-4.1,13.4-4.1c5.3,0,9.6,1.2,12.8,3.7c3.2,2.5,5.1,5.9,5.7,10.2h-11c-0.7-3.3-3.2-5-7.5-5c-2.2,0-3.9,0.4-5,1.3
	c-1.2,0.8-1.8,1.9-1.8,3.2c0,1.3,0.9,2.4,2.6,3.2c1.8,0.8,4.1,1.5,7,2.2c3.1,0.7,6,1.5,8.7,2.4c2.6,0.9,4.7,2.2,6.3,3.9
	c1.6,1.7,2.4,4.2,2.4,7.4c0.1,2.8-0.7,5.3-2.2,7.5c-1.5,2.2-3.7,4-6.5,5.3C341.2,72.5,337.9,73.1,334,73.1z"/>
<defs>
	<filter id="Adobe_OpacityMaskFilter" filterUnits="userSpaceOnUse" x="356.6" y="6.8" width="136" height="86.2">
		<feColorMatrix  type="matrix" values="1 0 0 0 0  0 1 0 0 0  0 0 1 0 0  0 0 0 1 0"/>
	</filter>
</defs>
<mask maskUnits="userSpaceOnUse" x="356.6" y="6.8" width="136" height="86.2" id="mask0_2_">
	<path class="st1" d="M7.3,93h485.4V6.8H7.3V93z"/>
</mask>
<g class="st2">
	<path class="st0" d="M358.1,72h11.6V27.1h-11.6V72z M363.9,20.1c-2.1,0-3.9-0.6-5.2-1.9c-1.4-1.3-2-2.9-2-4.8s0.7-3.5,2-4.8
		c1.4-1.2,3.1-1.9,5.2-1.9s3.9,0.6,5.2,1.9c1.4,1.2,2,2.8,2,4.8s-0.7,3.5-2,4.8C367.7,19.5,366,20.1,363.9,20.1z"/>
	<path class="st0" d="M376.4,72V27.1h10.3l0.9,7.6c1.4-2.7,3.4-4.8,6-6.3c2.6-1.6,5.7-2.4,9.3-2.4c5.6,0,9.9,1.8,13,5.3
		c3.1,3.5,4.6,8.6,4.6,15.4V72h-11.6V47.8c0-3.9-0.8-6.8-2.4-8.9c-1.6-2.1-4-3.1-7.4-3.1c-3.3,0-6,1.1-8,3.4
		c-2.1,2.3-3.1,5.5-3.1,9.6V72H376.4z"/>
	<path class="st0" d="M445.2,49.7c2.4,0,4.3-0.6,5.9-1.9c1.5-1.3,2.3-3.1,2.3-5.4c0-2.4-0.8-4.2-2.3-5.4c-1.5-1.3-3.5-1.9-5.9-1.9
		c-2.5,0-4.5,0.6-6,1.9c-1.5,1.3-2.3,3.1-2.3,5.4c0,2.4,0.8,4.2,2.3,5.4C440.8,49.1,442.8,49.7,445.2,49.7z M434.3,77.6
		c0,2.2,1,3.9,3.1,5c2.1,1.1,4.6,1.7,7.7,1.7c2.9,0,5.3-0.6,7.1-1.8c1.8-1.2,2.7-2.8,2.7-4.8c0-1.6-0.6-3-1.8-4.1
		c-1.2-1.1-3.5-1.8-7-2c-2.5-0.2-4.8-0.5-6.9-0.8c-1.8,1-3,2-3.8,3.2C434.7,75.2,434.3,76.3,434.3,77.6z M445.2,58.6
		c-2.2,0-4.2-0.2-6.1-0.7l-3.4,3.4c1,0.5,2.4,1,4.2,1.4c1.8,0.4,4.6,0.7,8.5,1.1c6,0.5,10.4,2,13.1,4.3c2.7,2.3,4.1,5.5,4.1,9.5
		c0,2.7-0.7,5.2-2.2,7.6c-1.5,2.4-3.7,4.3-6.7,5.8c-3,1.5-6.9,2.2-11.6,2.2c-6.4,0-11.6-1.2-15.5-3.6c-3.9-2.4-5.9-6-5.9-10.7
		c0-4,2-7.5,5.9-10.5c-1.2-0.5-2.3-1.1-3.1-1.7c-0.9-0.6-1.7-1.2-2.3-1.9v-2.1l7.9-8.3c-3.5-3.1-5.3-7-5.3-11.9c0-3,0.7-5.8,2.2-8.2
		c1.5-2.5,3.6-4.4,6.3-5.9c2.7-1.4,6-2.2,9.9-2.2c2.5,0,4.9,0.4,7.1,1.1h17.1v7.1l-7.7,0.5c1.2,2.3,1.8,4.8,1.8,7.6
		c0,3-0.7,5.8-2.2,8.2c-1.5,2.5-3.6,4.4-6.3,5.9C452.2,57.9,449,58.6,445.2,58.6z"/>
	<path class="st0" d="M482.1,22.8h1.8c0.3,0,0.6-0.1,0.9-0.2c0.2-0.2,0.4-0.4,0.4-0.8c0-0.4-0.1-0.6-0.4-0.8
		c-0.2-0.1-0.5-0.2-0.9-0.2h-1.8V22.8z M479.7,28.2v-9.6h4.5c1,0,1.8,0.3,2.4,0.8c0.6,0.5,0.9,1.3,0.9,2.2c0,1.5-0.7,2.4-2.1,2.8
		l2.5,3.8h-2.8l-2.2-3.6h-0.8v3.6H479.7z M483.4,30.9c2.2,0,3.9-0.7,5.2-2.1c1.3-1.4,2-3.2,2-5.4c0-2.2-0.7-3.9-2-5.3
		c-1.3-1.4-3.1-2.1-5.2-2.1c-2.2,0-4,0.7-5.3,2.1c-1.3,1.4-2,3.2-2,5.3c0,2.2,0.7,4,2,5.4C479.5,30.2,481.2,30.9,483.4,30.9z
		 M483.4,32.8c-1.8,0-3.4-0.4-4.8-1.2c-1.4-0.8-2.5-1.9-3.3-3.3c-0.8-1.4-1.2-3-1.2-4.8c0-1.8,0.4-3.4,1.2-4.8
		c0.8-1.4,1.9-2.5,3.3-3.3c1.4-0.8,3-1.2,4.8-1.2c1.8,0,3.4,0.4,4.8,1.2c1.4,0.8,2.5,1.9,3.3,3.3c0.8,1.4,1.2,3,1.2,4.8
		c0,1.8-0.4,3.4-1.2,4.8c-0.8,1.4-1.9,2.5-3.3,3.3C486.8,32.4,485.2,32.8,483.4,32.8z"/>
</g>
</svg>
