<?xml version="1.0" encoding="utf-8"?>
<!-- Generator: Adobe Illustrator 25.0.0, SVG Export Plug-In . SVG Version: 6.00 Build 0)  -->
<svg version="1.1" id="Layer_1" xmlns="http://www.w3.org/2000/svg" xmlns:xlink="http://www.w3.org/1999/xlink" x="0px" y="0px"
	 viewBox="0 0 500 183.7" style="enable-background:new 0 0 500 183.7;" xml:space="preserve">
<style type="text/css">
	.st0{fill:#FFFFFF;}
</style>
<g>
	<polygon class="st0" points="67.4,49.4 28.5,49.4 28.5,10.7 8.7,10.7 8.7,109 28.5,109 28.5,66 67.4,66 67.4,109 87.2,109 
		87.2,10.7 67.4,10.7 	"/>
	<rect x="96.1" y="37.8" class="st0" width="18.8" height="71.2"/>
	
		<ellipse transform="matrix(0.9732 -0.2298 0.2298 0.9732 -1.2739 24.6316)" class="st0" cx="105.1" cy="17.8" rx="11.3" ry="11.3"/>
	<path class="st0" d="M165.5,56.4V36.9c-1.6-0.4-5.2-0.9-10-0.7c-3,0.1-5.8,0.8-8.1,2.3c-2.4,1.5-5.1,4.7-8.1,9.5V37.8h-17.5V109
		h18.8V87c0-12.1,0.4-17.2,1.5-21c1-3.8,2.8-6.7,4.7-8C150.6,55.4,158.7,54.9,165.5,56.4z"/>
	<path class="st0" d="M233.9,87.2h-20.4c-1.2,2.9-3.4,5.4-5,6.5c-2.1,1.6-4.8,2.4-7.9,2.4c-4.6,0-8.4-1.1-11.5-4.2
		c-3.1-3.1-4.7-7.4-4.8-13h50.1c0.3-14.4-2.8-25.2-9.3-32.1c-6.5-7-15.4-10.5-26.6-10.5c-10,0-18.3,3.3-24.8,10
		c-6.5,6.7-9.8,15.9-9.8,27.7c0,9.9,2.5,18.1,7.5,24.5c6.3,8.1,16,12.1,29.2,12.1c8.3,0,15.2-1.8,20.7-5.4
		C226.6,101.7,231.3,94,233.9,87.2z M188.8,55.1c2.8-3,6.4-4.5,10.8-4.5c4.1,0,7.5,1.4,10.4,4.3c2.8,2.8,4.3,7,4.5,12.4h-29.9
		C184.5,62.2,185.9,58.1,188.8,55.1z"/>
	<path class="st0" d="M316,12.2c-3.7-1-11.5-1.5-23.6-1.5h-31.8V109h19.8V71.9h12.9c9,0,15.8-0.5,20.6-1.4c3.5-0.8,6.9-2.3,10.3-4.7
		c3.4-2.3,6.2-5.6,8.3-9.7c2.2-4.1,3.3-9.2,3.3-15.2c0-7.8-1.9-14.2-5.7-19.1C326.3,16.9,321.6,13.7,316,12.2z M313.1,48.9
		c-1.5,2.2-3.6,3.8-6.2,4.8c-2.6,1-7.9,1.5-15.7,1.5h-10.9V27.4h9.6c7.1,0,11.9,0.2,14.3,0.7c3.2,0.6,5.9,2,8,4.4
		c2.1,2.3,3.2,5.3,3.2,8.8C315.4,44.1,314.6,46.7,313.1,48.9z"/>
	<rect x="337.2" y="7.3" class="st0" width="17.5" height="101.8"/>
	<path class="st0" d="M410,109h18.1V37.8h-19.5v30c0,10.2-0.5,16.6-1.5,19.2c-1,2.6-2.8,4.8-5.4,6.6c-2.6,1.8-5.6,2.6-9,2.6
		c-2.9,0-5.3-0.7-7.2-2c-1.9-1.3-3.2-3.1-3.9-5.4c-0.7-2.3-1.1-8.4-1.1-18.4V37.8H361v45c0,6.7,0.9,12,2.6,15.8
		c1.8,3.8,4.6,6.7,8.5,8.8c3.9,2.1,8.4,3.2,13.3,3.2c4.9,0,9.5-1.1,13.9-3.3s7.9-5.2,10.6-9V109z"/>
	<path class="st0" d="M493.7,86.8c0-6-1.9-10.7-5.6-14c-3.7-3.3-10.3-6.1-19.8-8.4c-9.4-2.3-15-4-16.6-5.3c-1.2-0.9-1.8-2.1-1.8-3.4
		c0-1.6,0.7-2.8,2-3.8c2-1.4,5.4-2.1,10-2.1c3.7,0,6.6,0.7,8.6,2.2c2,1.5,3.2,3.8,3.5,6.7l17-0.3c-0.6-6.4-4.5-14.2-8.9-17.4
		c-4.5-3.2-11.3-4.8-20.5-4.8c-9.6,0-16.7,2.1-21.3,6.3c-4.6,4.2-6.9,9.4-6.9,15.6c0,6.8,2.7,12.2,8,16c3.8,2.8,12.9,5.8,27.2,9.2
		c3.1,0.8,5,1.6,5.9,2.5c0.8,0.9,1.3,2.1,1.3,3.6c0,2.1-0.8,3.8-2.3,5c-2.3,1.8-5.8,2.7-10.4,2.7c-4.2,0-7-0.9-9.3-2.8
		c-2.3-1.9-3.6-4.8-4-6.8l-18-0.3c0.4,6.9,4.3,13.7,9.7,17.6c5.3,3.9,12.6,5.9,21.7,5.9c10.1,0,17.7-2.3,22.8-7
		C491.1,98.9,493.7,93.3,493.7,86.8z"/>
	<path class="st0" d="M31.3,156.7c-3.4,8.6-5.2,14.1-6.2,17.1l-0.9,0c-1.3-4.1-3.4-10-6.3-17.2l-7.9-20.4H6.3l15.6,40.1h5.3
		l15.6-40.1h-3.7L31.3,156.7z"/>
	<path class="st0" d="M61.1,136.3h-1.9l-15.1,40.1h3.2l4-11.2l0.4-0.3h18.7l0.4,0.3l4.1,11.2h3.2L63,136.3H61.1z M67.6,156.1l2,5.7
		l-0.4,0.6H53.1l-0.4-0.6l2-5.7l0.7-1.9c2.8-7.7,4.8-12.3,5.7-15.4c0.9,2.7,3.1,7.7,5.6,15L67.6,156.1z"/>
	<path class="st0" d="M119.4,156.3c0,6.5,0.1,11.5,0.2,15.7l-0.8,0.3c-1.8-2.9-4.6-7.3-8.5-13.2l-2.2-3.4l-12.8-19.3h-4v40.1h3.1
		v-20c0-6.5-0.1-11.5-0.2-15.7l0.8-0.3c1.9,3.1,5.4,8.5,10.6,16.5l12.8,19.4h4v-40.1h-3.1V156.3z"/>
	<path class="st0" d="M180.7,167.3l6.2-8l-2.1-1.5l-5.7,7.3l-0.7,0l-9.4-10.9l0.1-0.7c6.4-3.8,8.2-6.1,8.2-10.3
		c0-4.3-3.8-7.6-8.8-7.6c-5.2,0-9.1,3.4-9.1,7.9c0,3.2,1.8,5.8,4.7,9.1l-0.1,0.7c-8.1,4.8-10.8,7.4-10.9,13.4c0,6,5.1,10.4,12,10.4
		c5.3,0,9-2,13.2-7.1l0.7,0l5.4,6.3h3.6l-7.3-8.6L180.7,167.3z M162.3,143.6c0-3.4,2.6-5.8,6.2-5.8c3.6,0,6.2,2.3,6.2,5.5
		c0,3.3-1.8,5.4-7.2,8.6l-0.6-0.1C163.7,148.1,162.3,146.3,162.3,143.6z M165.3,174.9c-5.3,0-9.1-3.5-9.1-8.4c0-4.5,2.1-7,9.6-11.4
		l0.6,0.1l10.5,12.1l0,0.6C173.1,172.5,170.2,174.9,165.3,174.9z"/>
	<path class="st0" d="M234.1,174.7c-9,0-15.3-7.5-15.3-18.3c0-11,6.3-18.3,15.7-18.3c4,0,7.5,1.4,11.7,4.8l1.7-2.1
		c-4.7-3.8-8.5-5.3-13.4-5.3c-11.7,0-18.9,8-18.9,20.9c0,12.7,7.3,20.9,18.5,20.9c2.9,0,5.5-0.5,7.7-1.6c2.1-1,4.4-2.7,7-5.2
		l-1.9-2.1C242.6,172.5,239.3,174.7,234.1,174.7z"/>
	<path class="st0" d="M272.9,136.3l-15.1,40.1h3.2l4-11.2l0.4-0.3h18.7l0.4,0.3l4.1,11.2h3.2l-15.1-40.1H272.9z M281.2,156.1l2,5.7
		l-0.4,0.6h-16.1l-0.4-0.6l2-5.7l0.7-1.9c2.8-7.7,4.8-12.4,5.7-15.4c0.9,2.7,3.1,7.7,5.6,15L281.2,156.1z"/>
	<path class="st0" d="M322.4,159.1c6.2-0.9,10-5.2,10-11.3c0-7.1-4.9-11.5-12.7-11.5h-15.8v40.1h3.2v-16.6l0.5-0.5h10.5l0.4,0.2
		l11.4,16.9h3.6l-11.3-16.6L322.4,159.1z M307.5,156.8l-0.5-0.5v-17.2l0.5-0.5h11.4c6.4,0,10.3,3.4,10.3,9c0,5.8-3.7,9.1-10.2,9.1
		H307.5z"/>
	<polygon class="st0" points="389.1,154 388.6,154.4 364.9,154.4 364.5,154 364.5,136.3 361.3,136.3 361.3,176.4 364.5,176.4 
		364.5,157.4 364.9,156.9 388.6,156.9 389.1,157.4 389.1,176.4 392.3,176.4 392.3,136.3 389.1,136.3 	"/>
	<rect x="407.2" y="136.3" class="st0" width="3.2" height="40.1"/>
	<path class="st0" d="M442.8,159.1c6.2-0.9,10-5.2,10-11.3c0-7.1-4.9-11.5-12.7-11.5h-15.8v40.1h3.2v-16.6l0.5-0.5h10.5l0.4,0.2
		l11.4,16.9h3.6l-11.3-16.6L442.8,159.1z M427.9,156.8l-0.5-0.5v-17.2l0.5-0.5h11.4c6.4,0,10.3,3.4,10.3,9c0,5.8-3.7,9.1-10.2,9.1
		H427.9z"/>
	<polygon class="st0" points="467.9,173.4 467.9,157.4 468.4,157 488.8,157 488.8,154.5 468.4,154.5 467.9,154.1 467.9,139.2 
		468.4,138.8 490.4,138.8 490.4,136.3 464.7,136.3 464.7,176.4 490.9,176.4 490.9,173.9 468.4,173.9 	"/>
</g>
</svg>
