<?xml version="1.0" encoding="utf-8"?>
<!-- Generator: Adobe Illustrator 25.0.0, SVG Export Plug-In . SVG Version: 6.00 Build 0)  -->
<svg version="1.1" id="Layer_1" xmlns="http://www.w3.org/2000/svg" xmlns:xlink="http://www.w3.org/1999/xlink" x="0px" y="0px"
	 viewBox="0 0 512 104.6" style="enable-background:new 0 0 512 104.6;" xml:space="preserve">
<style type="text/css">
	.st0{fill-rule:evenodd;clip-rule:evenodd;fill:#FFFFFF;}
	.st1{fill-rule:evenodd;clip-rule:evenodd;fill:#FFFFFF;filter:url(#Adobe_OpacityMaskFilter);}
	.st2{mask:url(#mask0_1_);}
</style>
<path class="st0" d="M61.9,11.1L44,63.1l-17.8-52H13.9l23,63.9H51l23-63.9H61.9z"/>
<path class="st0" d="M88.9,66.1c3.3,0,5.9-1.1,7.8-3.3c1.8-2.2,3-4.9,3.5-8.1h-9.9c-3.1,0-5.3,0.6-6.6,1.7c-1.3,1.1-2,2.5-2,4.1
	c0,1.8,0.7,3.1,2,4.1C84.9,65.6,86.7,66.1,88.9,66.1z M86.2,75.2c-3.9,0-7.1-0.6-9.5-1.9c-2.5-1.2-4.3-2.9-5.5-4.9
	c-1.2-2.1-1.8-4.3-1.8-6.8c0-4.2,1.6-7.5,4.9-10.1c3.3-2.6,8.2-3.9,14.7-3.9h11.4v-1.1c0-3.1-0.9-5.3-2.6-6.8
	c-1.8-1.4-3.9-2.2-6.5-2.2c-2.4,0-4.4,0.6-6.2,1.7c-1.8,1.1-2.8,2.8-3.3,4.9H70.4c0.3-3.3,1.4-6.1,3.3-8.5c1.9-2.4,4.4-4.3,7.4-5.6
	c3-1.3,6.4-1.9,10.2-1.9c6.4,0,11.5,1.6,15.2,4.8c3.7,3.2,5.5,7.7,5.5,13.6v27.6h-9.9l-1.1-7.2c-1.3,2.4-3.2,4.4-5.6,6
	C93.1,74.4,90,75.2,86.2,75.2z"/>
<path class="st0" d="M117.7,74.1V29.2h10.3l0.9,7.6c1.4-2.7,3.4-4.8,6-6.3c2.6-1.6,5.7-2.4,9.3-2.4c5.6,0,9.9,1.8,13,5.3
	c3.1,3.5,4.6,8.6,4.6,15.4v25.4h-11.6V49.8c0-3.9-0.8-6.8-2.4-8.9c-1.6-2.1-4-3.1-7.4-3.1c-3.3,0-5.9,1.1-8,3.4
	c-2.1,2.3-3.1,5.5-3.1,9.6v23.2H117.7z"/>
<path class="st0" d="M183.9,74.1V10.7h11.6V65h28.1v9.1H183.9z"/>
<path class="st0" d="M248.2,37.5c-2.8,0-5.4,0.8-7.5,2.4c-2.2,1.6-3.6,4-4.2,7.3h22.4c-0.2-3-1.3-5.3-3.3-7.1
	C253.6,38.4,251.1,37.5,248.2,37.5z M248.1,75.2c-4.5,0-8.6-1-12.1-2.9c-3.5-1.9-6.3-4.6-8.3-8.2c-2-3.5-3-7.5-3-12.1
	c0-4.7,1-8.8,3-12.4c2-3.6,4.7-6.4,8.2-8.5c3.5-2,7.6-3,12.3-3c4.4,0,8.3,1,11.7,2.9c3.4,1.9,6,4.6,8,7.9c1.9,3.4,2.9,7.1,2.9,11.2
	c0,0.7,0,1.4,0,2.1c0,0.7-0.1,1.5-0.1,2.3h-34.2c0.2,3.5,1.5,6.3,3.7,8.2c2.2,2,4.9,3,8,3c2.4,0,4.3-0.5,5.9-1.6
	c1.6-1.1,2.8-2.4,3.6-4.1h11.8c-0.8,2.8-2.3,5.4-4.2,7.7c-2,2.3-4.4,4.2-7.3,5.5C254.9,74.5,251.7,75.2,248.1,75.2z"/>
<path class="st0" d="M293.2,66.1c3.3,0,5.9-1.1,7.8-3.3c1.8-2.2,3-4.9,3.5-8.1h-9.9c-3.1,0-5.3,0.6-6.6,1.7c-1.3,1.1-2,2.5-2,4.1
	c0,1.8,0.7,3.1,2,4.1C289.3,65.6,291,66.1,293.2,66.1z M290.6,75.2c-3.9,0-7.1-0.6-9.5-1.9c-2.5-1.2-4.3-2.9-5.5-4.9
	c-1.2-2.1-1.8-4.3-1.8-6.8c0-4.2,1.6-7.5,4.9-10.1c3.3-2.6,8.2-3.9,14.7-3.9h11.4v-1.1c0-3.1-0.9-5.3-2.6-6.8
	c-1.8-1.4-3.9-2.2-6.5-2.2c-2.4,0-4.4,0.6-6.2,1.7c-1.8,1.1-2.8,2.8-3.3,4.9h-11.4c0.3-3.3,1.4-6.1,3.3-8.5c1.9-2.4,4.4-4.3,7.4-5.6
	c3-1.3,6.4-1.9,10.2-1.9c6.4,0,11.5,1.6,15.2,4.8c3.7,3.2,5.5,7.7,5.5,13.6v27.6h-9.9l-1.1-7.2c-1.3,2.4-3.2,4.4-5.6,6
	C297.4,74.4,294.3,75.2,290.6,75.2z"/>
<path class="st0" d="M340.6,75.2c-4,0-7.5-0.6-10.5-1.9c-3-1.3-5.4-3.1-7.3-5.4c-1.8-2.3-2.9-4.9-3.3-8h11.7c0.4,1.8,1.3,3.2,3,4.5
	c1.6,1.2,3.7,1.9,6.2,1.9c2.5,0,4.4-0.5,5.6-1.5c1.2-1,1.8-2.2,1.8-3.5c0-1.9-0.9-3.2-2.5-3.9c-1.7-0.7-4.1-1.4-7.1-2
	c-1.9-0.4-3.9-0.9-5.9-1.5c-2-0.6-3.8-1.4-5.5-2.3c-1.7-0.9-3-2.1-4-3.6c-1-1.5-1.5-3.3-1.5-5.5c0-4,1.6-7.3,4.8-10.1
	c3.2-2.7,7.6-4.1,13.4-4.1c5.3,0,9.6,1.2,12.8,3.7c3.2,2.5,5.1,5.9,5.7,10.2h-11c-0.7-3.3-3.2-5-7.5-5c-2.2,0-3.9,0.4-5,1.3
	c-1.2,0.8-1.8,1.9-1.8,3.2c0,1.3,0.9,2.4,2.6,3.2c1.8,0.8,4.1,1.5,7,2.2c3.1,0.7,6,1.5,8.7,2.4c2.6,0.9,4.7,2.2,6.3,3.9
	c1.6,1.7,2.4,4.2,2.4,7.4c0.1,2.8-0.7,5.3-2.2,7.5c-1.5,2.2-3.7,4-6.5,5.3C347.8,74.6,344.5,75.2,340.6,75.2z"/>
<defs>
	<filter id="Adobe_OpacityMaskFilter" filterUnits="userSpaceOnUse" x="363.2" y="8.9" width="136" height="86.2">
		<feColorMatrix  type="matrix" values="1 0 0 0 0  0 1 0 0 0  0 0 1 0 0  0 0 0 1 0"/>
	</filter>
</defs>
<mask maskUnits="userSpaceOnUse" x="363.2" y="8.9" width="136" height="86.2" id="mask0_1_">
	<path class="st1" d="M13.9,95.1h485.4V8.9H13.9V95.1z"/>
</mask>
<g class="st2">
	<path class="st0" d="M364.7,74.1h11.6V29.2h-11.6V74.1z M370.5,22.2c-2.1,0-3.9-0.6-5.2-1.9c-1.4-1.3-2-2.9-2-4.8s0.7-3.5,2-4.8
		c1.4-1.2,3.1-1.9,5.2-1.9s3.9,0.6,5.2,1.9c1.4,1.2,2,2.8,2,4.8s-0.7,3.5-2,4.8C374.3,21.6,372.6,22.2,370.5,22.2z"/>
	<path class="st0" d="M383,74.1V29.2h10.3l0.9,7.6c1.4-2.7,3.4-4.8,6-6.3c2.6-1.6,5.7-2.4,9.3-2.4c5.6,0,9.9,1.8,13,5.3
		c3.1,3.5,4.6,8.6,4.6,15.4v25.4h-11.6V49.8c0-3.9-0.8-6.8-2.4-8.9c-1.6-2.1-4-3.1-7.4-3.1c-3.3,0-6,1.1-8,3.4
		c-2.1,2.3-3.1,5.5-3.1,9.6v23.2H383z"/>
	<path class="st0" d="M451.8,51.8c2.4,0,4.3-0.6,5.9-1.9c1.5-1.3,2.3-3.1,2.3-5.4c0-2.4-0.8-4.2-2.3-5.4c-1.5-1.3-3.5-1.9-5.9-1.9
		c-2.5,0-4.5,0.6-6,1.9c-1.5,1.3-2.3,3.1-2.3,5.4c0,2.4,0.8,4.2,2.3,5.4C447.4,51.2,449.4,51.8,451.8,51.8z M440.9,79.6
		c0,2.2,1,3.9,3.1,5c2.1,1.1,4.6,1.7,7.7,1.7c2.9,0,5.3-0.6,7.1-1.8c1.8-1.2,2.7-2.8,2.7-4.8c0-1.6-0.6-3-1.8-4.1
		c-1.2-1.1-3.5-1.8-7-2c-2.5-0.2-4.8-0.5-6.9-0.8c-1.8,1-3,2-3.8,3.2C441.3,77.2,440.9,78.4,440.9,79.6z M451.8,60.7
		c-2.2,0-4.2-0.2-6.1-0.7l-3.4,3.4c1,0.5,2.4,1,4.2,1.4c1.8,0.4,4.6,0.7,8.5,1.1c6,0.5,10.4,2,13.1,4.3c2.7,2.3,4.1,5.5,4.1,9.5
		c0,2.7-0.7,5.2-2.2,7.6c-1.5,2.4-3.7,4.3-6.7,5.8c-3,1.5-6.9,2.2-11.6,2.2c-6.4,0-11.6-1.2-15.5-3.6c-3.9-2.4-5.9-6-5.9-10.7
		c0-4,2-7.5,5.9-10.5c-1.2-0.5-2.3-1.1-3.1-1.7c-0.9-0.6-1.7-1.2-2.3-1.9v-2.1l7.9-8.3c-3.5-3.1-5.3-7-5.3-11.9c0-3,0.7-5.8,2.2-8.2
		c1.5-2.5,3.6-4.4,6.3-5.9c2.7-1.4,6-2.2,9.9-2.2c2.5,0,4.9,0.4,7.1,1.1H476v7.1l-7.7,0.5c1.2,2.3,1.8,4.8,1.8,7.6
		c0,3-0.7,5.8-2.2,8.2c-1.5,2.5-3.6,4.4-6.3,5.9C458.9,60,455.6,60.7,451.8,60.7z"/>
	<path class="st0" d="M488.7,24.8h1.8c0.3,0,0.6-0.1,0.9-0.2c0.2-0.2,0.4-0.4,0.4-0.8c0-0.4-0.1-0.6-0.4-0.8
		c-0.2-0.1-0.5-0.2-0.9-0.2h-1.8V24.8z M486.3,30.3v-9.6h4.5c1,0,1.8,0.3,2.4,0.8c0.6,0.5,0.9,1.3,0.9,2.2c0,1.5-0.7,2.4-2.1,2.8
		l2.5,3.8h-2.8l-2.2-3.6h-0.8v3.6H486.3z M490,33c2.2,0,3.9-0.7,5.2-2.1c1.3-1.4,2-3.2,2-5.4c0-2.2-0.7-3.9-2-5.3
		c-1.3-1.4-3.1-2.1-5.2-2.1c-2.2,0-4,0.7-5.3,2.1c-1.3,1.4-2,3.2-2,5.3c0,2.2,0.7,4,2,5.4C486.1,32.3,487.8,33,490,33z M490,34.8
		c-1.8,0-3.4-0.4-4.8-1.2c-1.4-0.8-2.5-1.9-3.3-3.3c-0.8-1.4-1.2-3-1.2-4.8c0-1.8,0.4-3.4,1.2-4.8c0.8-1.4,1.9-2.5,3.3-3.3
		c1.4-0.8,3-1.2,4.8-1.2c1.8,0,3.4,0.4,4.8,1.2c1.4,0.8,2.5,1.9,3.3,3.3c0.8,1.4,1.2,3,1.2,4.8c0,1.8-0.4,3.4-1.2,4.8
		c-0.8,1.4-1.9,2.5-3.3,3.3C493.4,34.4,491.8,34.8,490,34.8z"/>
</g>
</svg>
